# Blender v2.93.3 OBJ File: ''
# www.blender.org
o Plane_Plane.001
v -0.800000 0.200000 0.800000
v 1.200000 0.200000 0.800000
v -0.800000 0.200000 -1.200000
v 1.200000 0.200000 -1.200000
v 0.200000 0.200000 0.800000
v 0.200000 0.200000 -1.200000
v -0.800000 0.200000 -0.200000
v 1.200000 0.200000 -0.200000
v 0.200000 0.200000 -0.200000
v -0.800000 0.200000 0.300000
v 1.200000 0.200000 0.300000
v 0.200000 0.200000 0.300000
v 1.200000 0.200000 -0.700000
v 0.200000 0.200000 -0.700000
v -0.800000 0.200000 -0.700000
v 0.700000 0.200000 0.800000
v 0.700000 0.200000 -1.200000
v 0.700000 0.200000 -0.200000
v 0.700000 0.200000 0.300000
v 0.700000 0.200000 -0.700000
v -0.300000 0.200000 -1.200000
v -0.300000 0.200000 0.800000
v -0.300000 0.200000 -0.200000
v -0.300000 0.200000 0.300000
v -0.300000 0.200000 -0.700000
v -0.800000 0.200000 0.550000
v 1.200000 0.200000 0.550000
v 0.200000 0.200000 0.550000
v 0.700000 0.200000 0.550000
v -0.300000 0.200000 0.550000
v 1.200000 0.200000 0.050000
v 0.200000 0.200000 0.050000
v -0.800000 0.200000 0.050000
v 0.700000 0.200000 0.050000
v -0.300000 0.200000 0.050000
v -0.800000 0.200000 -0.450000
v 1.200000 0.200000 -0.450000
v 0.200000 0.200000 -0.450000
v 0.700000 0.200000 -0.450000
v -0.300000 0.200000 -0.450000
v 1.200000 0.200000 -0.950000
v 0.200000 0.200000 -0.950000
v -0.800000 0.200000 -0.950000
v 0.700000 0.200000 -0.950000
v -0.300000 0.200000 -0.950000
v -0.550000 0.200000 -1.200000
v -0.550000 0.200000 -0.200000
v -0.550000 0.200000 0.300000
v -0.550000 0.200000 -0.700000
v -0.550000 0.200000 0.800000
v -0.550000 0.200000 0.550000
v -0.550000 0.200000 0.050000
v -0.550000 0.200000 -0.450000
v -0.550000 0.200000 -0.950000
v -0.050000 0.200000 0.800000
v -0.050000 0.200000 -1.200000
v -0.050000 0.200000 -0.200000
v -0.050000 0.200000 0.300000
v -0.050000 0.200000 -0.700000
v -0.050000 0.200000 0.550000
v -0.050000 0.200000 0.050000
v -0.050000 0.200000 -0.450000
v -0.050000 0.200000 -0.950000
v 0.450000 0.200000 -1.200000
v 0.450000 0.200000 -0.200000
v 0.450000 0.200000 0.300000
v 0.450000 0.200000 -0.700000
v 0.450000 0.200000 0.800000
v 0.450000 0.200000 0.550000
v 0.450000 0.200000 0.050000
v 0.450000 0.200000 -0.450000
v 0.450000 0.200000 -0.950000
v 0.950000 0.200000 0.800000
v 0.950000 0.200000 -1.200000
v 0.950000 0.200000 -0.200000
v 0.950000 0.200000 0.300000
v 0.950000 0.200000 -0.700000
v 0.950000 0.200000 0.550000
v 0.950000 0.200000 0.050000
v 0.950000 0.200000 -0.450000
v 0.950000 0.200000 -0.950000
vn 0.0000 1.0000 0.0000
s off
f 41//1 74//1 81//1
f 42//1 56//1 63//1
f 32//1 57//1 61//1
f 31//1 75//1 79//1
f 27//1 76//1 78//1
f 28//1 58//1 60//1
f 38//1 59//1 62//1
f 37//1 77//1 80//1
f 39//1 67//1 71//1
f 29//1 66//1 69//1
f 34//1 65//1 70//1
f 44//1 64//1 72//1
f 40//1 49//1 53//1
f 30//1 48//1 51//1
f 35//1 47//1 52//1
f 45//1 46//1 54//1
f 22//1 51//1 50//1
f 16//1 69//1 68//1
f 5//1 60//1 55//1
f 2//1 78//1 73//1
f 24//1 52//1 48//1
f 19//1 70//1 66//1
f 11//1 79//1 76//1
f 12//1 61//1 58//1
f 23//1 53//1 47//1
f 18//1 71//1 65//1
f 8//1 80//1 75//1
f 9//1 62//1 57//1
f 25//1 54//1 49//1
f 20//1 72//1 67//1
f 14//1 63//1 59//1
f 13//1 81//1 77//1
f 49//1 43//1 15//1
f 47//1 36//1 7//1
f 48//1 33//1 10//1
f 50//1 26//1 1//1
f 54//1 3//1 43//1
f 52//1 7//1 33//1
f 51//1 10//1 26//1
f 53//1 15//1 36//1
f 59//1 45//1 25//1
f 57//1 40//1 23//1
f 58//1 35//1 24//1
f 55//1 30//1 22//1
f 62//1 25//1 40//1
f 60//1 24//1 30//1
f 61//1 23//1 35//1
f 63//1 21//1 45//1
f 67//1 42//1 14//1
f 65//1 38//1 9//1
f 66//1 32//1 12//1
f 68//1 28//1 5//1
f 72//1 6//1 42//1
f 70//1 9//1 32//1
f 69//1 12//1 28//1
f 71//1 14//1 38//1
f 77//1 44//1 20//1
f 75//1 39//1 18//1
f 76//1 34//1 19//1
f 73//1 29//1 16//1
f 80//1 20//1 39//1
f 78//1 19//1 29//1
f 79//1 18//1 34//1
f 81//1 17//1 44//1
f 41//1 4//1 74//1
f 42//1 6//1 56//1
f 32//1 9//1 57//1
f 31//1 8//1 75//1
f 27//1 11//1 76//1
f 28//1 12//1 58//1
f 38//1 14//1 59//1
f 37//1 13//1 77//1
f 39//1 20//1 67//1
f 29//1 19//1 66//1
f 34//1 18//1 65//1
f 44//1 17//1 64//1
f 40//1 25//1 49//1
f 30//1 24//1 48//1
f 35//1 23//1 47//1
f 45//1 21//1 46//1
f 22//1 30//1 51//1
f 16//1 29//1 69//1
f 5//1 28//1 60//1
f 2//1 27//1 78//1
f 24//1 35//1 52//1
f 19//1 34//1 70//1
f 11//1 31//1 79//1
f 12//1 32//1 61//1
f 23//1 40//1 53//1
f 18//1 39//1 71//1
f 8//1 37//1 80//1
f 9//1 38//1 62//1
f 25//1 45//1 54//1
f 20//1 44//1 72//1
f 14//1 42//1 63//1
f 13//1 41//1 81//1
f 49//1 54//1 43//1
f 47//1 53//1 36//1
f 48//1 52//1 33//1
f 50//1 51//1 26//1
f 54//1 46//1 3//1
f 52//1 47//1 7//1
f 51//1 48//1 10//1
f 53//1 49//1 15//1
f 59//1 63//1 45//1
f 57//1 62//1 40//1
f 58//1 61//1 35//1
f 55//1 60//1 30//1
f 62//1 59//1 25//1
f 60//1 58//1 24//1
f 61//1 57//1 23//1
f 63//1 56//1 21//1
f 67//1 72//1 42//1
f 65//1 71//1 38//1
f 66//1 70//1 32//1
f 68//1 69//1 28//1
f 72//1 64//1 6//1
f 70//1 65//1 9//1
f 69//1 66//1 12//1
f 71//1 67//1 14//1
f 77//1 81//1 44//1
f 75//1 80//1 39//1
f 76//1 79//1 34//1
f 73//1 78//1 29//1
f 80//1 77//1 20//1
f 78//1 76//1 19//1
f 79//1 75//1 18//1
f 81//1 74//1 17//1
